<?xml version="1.0" encoding="utf-8"?>
<!-- Generator: Adobe Illustrator 25.2.1, SVG Export Plug-In . SVG Version: 6.00 Build 0)  -->
<svg version="1.1" id="b954c258-ebd6-43b8-aaa6-ec167673194d"
	 xmlns="http://www.w3.org/2000/svg" xmlns:xlink="http://www.w3.org/1999/xlink" x="0px" y="0px" viewBox="0 0 866.3 605.7"
	 style="enable-background:new 0 0 866.3 605.7;" xml:space="preserve">
<style type="text/css">
	.st0{fill:#E6E6E6;}
	.st1{fill:#FFFFFF;}
	.st2{fill:#B17166;}
</style>
<rect x="165.4" y="140.9" class="st0" width="551" height="343.1"/>
<rect x="202.3" y="207" class="st1" width="100.9" height="65.6"/>
<rect x="327.7" y="207" class="st1" width="100.9" height="65.6"/>
<rect x="453.1" y="207" class="st1" width="100.9" height="65.6"/>
<rect x="578.5" y="207" class="st1" width="100.9" height="65.6"/>
<rect x="202.3" y="299.8" class="st1" width="100.9" height="65.6"/>
<rect x="327.7" y="299.8" class="st1" width="100.9" height="65.6"/>
<rect x="453.1" y="299.8" class="st1" width="100.9" height="65.6"/>
<rect x="578.5" y="299.8" class="st1" width="100.9" height="65.6"/>
<rect x="202.3" y="392.7" class="st1" width="100.9" height="65.6"/>
<rect x="327.7" y="392.7" class="st1" width="100.9" height="65.6"/>
<rect x="453.1" y="392.7" class="st1" width="100.9" height="65.6"/>
<rect x="578.5" y="392.7" class="st1" width="100.9" height="65.6"/>
<circle class="st1" cx="309.7" cy="166.1" r="15.1"/>
<circle class="st1" cx="560" cy="166.1" r="15.1"/>
<rect x="303.7" y="100.5" class="st0" width="12.1" height="69.6"/>
<rect x="553.9" y="100.5" class="st0" width="12.1" height="69.6"/>
<path class="st2" d="M651.8,239.8c0,12.6-10.2,22.7-22.8,22.7s-22.7-10.2-22.7-22.8c0-12.6,10.2-22.7,22.8-22.7
	c7.8,0,15,4,19.2,10.6C650.6,231.2,651.8,235.4,651.8,239.8z"/>
<path class="st1" d="M648.3,227.6l-22.5,22.5c-1.4-2.2-9.3-12.3-9.3-12.3c1-1,2.1-2,3.2-2.8l6.5,8.7l19.4-19.4
	C646.6,225.2,647.5,226.4,648.3,227.6z"/>
<path class="st2" d="M401,332.6c0,12.6-10.2,22.7-22.8,22.7c-12.6,0-22.7-10.2-22.7-22.8s10.2-22.7,22.8-22.7c7.8,0,15,4,19.2,10.6
	C399.8,324.1,401,328.2,401,332.6z"/>
<path class="st1" d="M397.5,320.4L375,342.9c-1.4-2.2-9.3-12.3-9.3-12.3c1-1,2.1-2,3.2-2.8l6.5,8.7l19.4-19.4
	C395.8,318.1,396.7,319.2,397.5,320.4z"/>
<path class="st2" d="M275.6,332.6c0,12.6-10.2,22.7-22.8,22.7s-22.7-10.2-22.7-22.8s10.2-22.7,22.8-22.7c7.8,0,15,4,19.2,10.6
	C274.4,324.1,275.6,328.2,275.6,332.6z"/>
<path class="st1" d="M272.1,320.4l-22.5,22.5c-1.4-2.2-9.2-12.4-9.2-12.4c1-1,2.1-2,3.2-2.8l6.5,8.7l19.4-19.4
	C270.5,318.1,271.3,319.2,272.1,320.4z"/>
</svg>
