<?xml version="1.0" encoding="utf-8"?>
<!-- Generator: Adobe Illustrator 25.2.1, SVG Export Plug-In . SVG Version: 6.00 Build 0)  -->
<svg version="1.1" id="b56ce292-c2ef-482a-b84e-c8d73988b32f"
	 xmlns="http://www.w3.org/2000/svg" xmlns:xlink="http://www.w3.org/1999/xlink" x="0px" y="0px" viewBox="0 0 888 639.2"
	 style="enable-background:new 0 0 888 639.2;" xml:space="preserve">
<style type="text/css">
	.st0{fill:#E6E6E6;}
	.st1{fill:#3F3D56;}
	.st2{fill:#B17166;}
	.st3{fill:#534741;}
	.st4{fill:#FFB9B9;}
	.st5{fill:#2F2E41;}
	.st6{opacity:0.1;enable-background:new    ;}
	.st7{opacity:0.2;enable-background:new    ;}
</style>
<g>
	<rect x="40" y="388.4" class="st0" width="6" height="5"/>
	<path class="st0" d="M613.5,393.4h-11.8v-5h11.8V393.4z M589.9,393.4h-11.8v-5h11.8V393.4z M566.2,393.4h-11.8v-5h11.8V393.4z
		 M542.6,393.4h-11.8v-5h11.8V393.4z M518.9,393.4h-11.8v-5h11.8V393.4z M495.3,393.4h-11.8v-5h11.8V393.4z M471.6,393.4h-11.8v-5
		h11.8V393.4z M448,393.4h-11.8v-5H448V393.4z M424.4,393.4h-11.9v-5h11.8v5H424.4z M400.7,393.4h-11.8v-5h11.8V393.4z M377.1,393.4
		h-11.8v-5h11.8V393.4z M353.4,393.4h-11.8v-5h11.8V393.4z M329.8,393.4H318v-5h11.8V393.4z M306.1,393.4h-11.8v-5h11.8V393.4z
		 M282.5,393.4h-11.8v-5h11.8V393.4z M258.8,393.4H247v-5h11.8V393.4z M235.2,393.4h-11.8v-5h11.8V393.4z M211.5,393.4h-11.8v-5
		h11.8V393.4z M187.9,393.4h-11.8v-5h11.8V393.4z M164.2,393.4h-11.8v-5h11.8V393.4z M140.6,393.4h-11.8v-5h11.8V393.4z
		 M116.9,393.4h-11.8v-5h11.8V393.4z M93.3,393.4H81.5v-5h11.8V393.4z M69.6,393.4H57.8v-5h11.8V393.4z"/>
	<rect x="40" y="261.4" class="st0" width="6" height="5"/>
	<path class="st0" d="M613.5,266.4h-11.8v-5h11.8V266.4z M589.9,266.4h-11.8v-5h11.8V266.4z M566.2,266.4h-11.8v-5h11.8V266.4z
		 M542.6,266.4h-11.8v-5h11.8V266.4z M518.9,266.4h-11.8v-5h11.8V266.4z M495.3,266.4h-11.8v-5h11.8V266.4z M471.6,266.4h-11.8v-5
		h11.8V266.4z M448,266.4h-11.8v-5H448V266.4z M424.4,266.4h-11.9v-5h11.8v5H424.4z M400.7,266.4h-11.8v-5h11.8V266.4z M377.1,266.4
		h-11.8v-5h11.8V266.4z M353.4,266.4h-11.8v-5h11.8V266.4z M329.8,266.4H318v-5h11.8V266.4z M306.1,266.4h-11.8v-5h11.8V266.4z
		 M282.5,266.4h-11.8v-5h11.8V266.4z M258.8,266.4H247v-5h11.8V266.4z M235.2,266.4h-11.8v-5h11.8V266.4z M211.5,266.4h-11.8v-5
		h11.8V266.4z M187.9,266.4h-11.8v-5h11.8V266.4z M164.2,266.4h-11.8v-5h11.8V266.4z M140.6,266.4h-11.8v-5h11.8V266.4z
		 M116.9,266.4h-11.8v-5h11.8V266.4z M93.3,266.4H81.5v-5h11.8V266.4z M69.6,266.4H57.8v-5h11.8V266.4z"/>
	<rect x="40" y="134.4" class="st0" width="6" height="5"/>
	<path class="st0" d="M613.5,139.4h-11.8v-5h11.8V139.4z M589.9,139.4h-11.8v-5h11.8V139.4z M566.2,139.4h-11.8v-5h11.8V139.4z
		 M542.6,139.4h-11.8v-5h11.8V139.4z M518.9,139.4h-11.8v-5h11.8V139.4z M495.3,139.4h-11.8v-5h11.8V139.4z M471.6,139.4h-11.8v-5
		h11.8V139.4z M448,139.4h-11.8v-5H448V139.4z M424.4,139.4h-11.9v-5h11.8v5H424.4z M400.7,139.4h-11.8v-5h11.8V139.4z M377.1,139.4
		h-11.8v-5h11.8V139.4z M353.4,139.4h-11.8v-5h11.8V139.4z M329.8,139.4H318v-5h11.8V139.4z M306.1,139.4h-11.8v-5h11.8V139.4z
		 M282.5,139.4h-11.8v-5h11.8V139.4z M258.8,139.4H247v-5h11.8V139.4z M235.2,139.4h-11.8v-5h11.8V139.4z M211.5,139.4h-11.8v-5
		h11.8V139.4z M187.9,139.4h-11.8v-5h11.8V139.4z M164.2,139.4h-11.8v-5h11.8V139.4z M140.6,139.4h-11.8v-5h11.8V139.4z
		 M116.9,139.4h-11.8v-5h11.8V139.4z M93.3,139.4H81.5v-5h11.8V139.4z M69.6,139.4H57.8v-5h11.8V139.4z"/>
	<rect x="186.5" y="389.9" class="st1" width="49" height="180"/>
	<rect x="195.5" y="389.9" class="st2" width="49" height="180"/>
	<rect x="302.5" y="262.9" class="st1" width="49" height="307"/>
	<rect x="311.5" y="262.9" class="st2" width="49" height="307"/>
	<rect x="418.5" y="135.9" class="st1" width="49" height="434"/>
	<rect x="427.5" y="135.9" class="st2" width="49" height="434"/>
	<circle class="st0" cx="40.5" cy="136.9" r="12"/>
	<circle class="st0" cx="40.5" cy="263.9" r="12"/>
	<circle class="st0" cx="40.5" cy="390.9" r="12"/>
	<rect x="0.5" y="568.8" class="st1" width="888" height="2.2"/>
	<circle class="st3" cx="756.8" cy="129.5" r="34"/>
	<path class="st4" d="M674.5,353.5l-1.8,11c0,0-10.1,37.7,2.8,35.9c12.9-1.8,8.3-34,8.3-34l1.8-10.1L674.5,353.5z"/>
	<path class="st5" d="M788.1,301.5h-74.5c0,0-21.2,33.1-12.9,91.1s4.6,187.7,4.6,187.7h28.5L753.1,377l40.5,203.3l26.7-2.8
		l-14.7-234.6L788.1,301.5z"/>
	<path class="st5" d="M713.1,577l-0.9,34c0,0-12,34,5.5,30.4s19.3-11,19.3-13.8s-4.6-50.6-4.6-50.6H713.1L713.1,577z"/>
	<path class="st5" d="M815.6,574.5l5.3,36.4c0,0,16.2,32.2-1.6,30.8s-20.6-8.5-20.9-11.2s-1.9-53.5-1.9-53.5L815.6,574.5z"/>
	<circle class="st4" cx="757.3" cy="138.2" r="24.8"/>
	<polygon class="st4" points="776.2,148.8 786.3,183.8 766,204 755,184.7 751.3,157.1 	"/>
	<path class="st0" d="M784.9,172.3c0,0-1.4-9.3-4.4-8.3s-29.7,7.4-29.7,10.2v12l-22.1,85.6l-5.5,35l58-0.9l9.2-121.4L784.9,172.3z"
		/>
	<path class="st5" d="M779.8,162.6l6.4,1.8l10.6,10.6c0,0,25.8-4.6,29.4,7.4s-20.2,161-20.2,161s-40.5,13.8-46.9-21.2
		s-6-64.9,6.9-86.9S779.8,162.6,779.8,162.6z"/>
	<path class="st5" d="M753.2,170.8l-3.7,1.9l-3.2,14.3c0,0-26.7,7.4-28.5,17.5c-1.8,10.1,0.9,65.3,0.9,65.3s-25.8,52.4-21.2,74.5
		c0,0,11,9.2,19.3-2.8s28.5-83.7,29.4-88.3S757.3,172.1,753.2,170.8z"/>
	<polygon class="st5" points="727.9,200.8 718,203.5 711.3,222.9 697.5,272.5 670.8,354.4 689.2,362.7 718.7,302.9 	"/>
	<path class="st3" d="M776.2,135c-15.8-5.7-21.2-9.2-38.6,0l-6.4-25.8h51.5L776.2,135z"/>
	<circle class="st3" cx="754.1" cy="93.6" r="19.3"/>
	<path class="st3" d="M731.1,89c0-10.3,8.1-18.8,18.4-19.3c-0.3,0-0.6,0-0.9,0c-10.7,0-19.3,8.6-19.3,19.3s8.6,19.3,19.3,19.3
		c0.3,0,0.6,0,0.9,0C739.2,107.8,731.1,99.3,731.1,89z"/>
	<rect x="716.1" y="356.8" class="st2" width="71.8" height="30.5"/>
	<rect x="716.1" y="356.8" class="st6" width="71.8" height="30.5"/>
	<circle class="st7" cx="752" cy="372.1" r="8.4"/>
	<polygon class="st7" points="732.9,385.1 719.2,385.1 719.2,359.1 733.7,359.1 733.7,360.6 720.7,360.6 720.7,383.5 732.9,383.5 	
		"/>
	<polygon class="st7" points="784.8,385.1 771.1,385.1 771.1,383.5 783.3,383.5 783.3,360.6 770.3,360.6 770.3,359.1 784.8,359.1 	
		"/>
	
		<rect x="713.4" y="369.6" transform="matrix(0.9545 -0.2981 0.2981 0.9545 -80.6719 240.8663)" class="st2" width="71.8" height="30.5"/>
	<circle class="st7" cx="749.2" cy="385" r="8.4"/>
	<polygon class="st7" points="734.9,403 721.8,407.1 714,382.3 727.9,378 728.3,379.5 716,383.4 722.8,405.2 734.4,401.6 	"/>
	<polygon class="st7" points="784.4,387.6 771.3,391.7 770.9,390.2 782.5,386.6 775.7,364.7 763.3,368.6 762.9,367.1 776.7,362.8 	
		"/>
	<path class="st4" d="M787.8,338.3l-4.2,10.4c0,0-11.1,37.4-21.1,29.1s10.8-33.3,10.8-33.3l3.7-9.6L787.8,338.3z"/>
	<path class="st5" d="M813.4,185.2l12.9-2.8c1.8,5.4,3.3,11,4.4,16.6c1.8,9.2-1,81.9-2.8,89.2s-35.2,56.4-35.2,56.4l-30-6.5
		l43.4-65.5L813.4,185.2z"/>
	<polygon class="st7" points="806.5,231.9 798.5,275.9 768.5,336.9 795.5,272.9 	"/>
</g>
</svg>
