<?xml version="1.0" encoding="utf-8"?>
<!-- Generator: Adobe Illustrator 25.2.1, SVG Export Plug-In . SVG Version: 6.00 Build 0)  -->
<svg version="1.1" id="b3d864f8-84bf-4ad6-ac45-a7174feef3c9"
	 xmlns="http://www.w3.org/2000/svg" xmlns:xlink="http://www.w3.org/1999/xlink" x="0px" y="0px" viewBox="0 0 1354.6 834.6"
	 style="enable-background:new 0 0 1354.6 834.6;" xml:space="preserve">
<style type="text/css">
	.st0{fill:#24365D;}
	.st1{fill:#B17166;}
	.st2{fill:#534741;}
	.st3{fill:#E6B7AF;}
	.st4{fill:#F2C8BF;}
	.st5{opacity:0.1;enable-background:new    ;}
	.st6{fill:none;stroke:#2F2E41;stroke-miterlimit:10;}
	.st7{fill:#F2F2F2;}
	.st8{fill:#E6E6E6;}
	.st9{fill:#FFFFFF;}
	.st10{fill:#CCCCCC;}
	.st11{fill:#3F3D56;}
</style>
<line class="st0" x1="841.1" y1="817.9" x2="1291.6" y2="817.9"/>
<path class="st1" d="M1160.1,256h10.8c0,0,9.9,76.2,2.7,83.3s-26.9,11.7-29.6,0c-2.7-11.7,0-54.7,0-54.7L1160.1,256z"/>
<ellipse class="st2" cx="1089.7" cy="189.7" rx="65.4" ry="76.6"/>
<path class="st3" d="M1075,204c0,0,3.6,29.6-7.2,35.8s12.5,42.1,12.5,42.1l27.8,7.2l18.8-26l-3.6-26.9c0,0-21.5-21.5-11.7-41.2
	L1075,204z"/>
<path class="st4" d="M1034.6,525c0,0-10.8,97.7,0,121c10.8,23.3,39.4,88.7,39.4,88.7l-9,18.8l24.2-5.4l9.9-18.8
	c0,0-11.7-45.7-13.4-61.8c-1.8-16.1-15.2-45.7-15.2-45.7l25.1-106.6L1034.6,525z"/>
<path class="st4" d="M1119.8,508.7c0,0,0.9,98.6,7.2,113.9l-3.6,133.5l19.7,2.6c0,0,28.7-112,24.2-138.9
	c-4.5-26.9,0.9-123.7,0.9-123.7L1119.8,508.7z"/>
<circle class="st4" cx="1089.7" cy="182" r="34.1"/>
<path class="st1" d="M1205.8,521.3c0,0-24.2,16.1-34.1,4.5c-9.9-11.7-130.8,7.2-146.1,3.6c-15.2-3.6,8.1-60.9,8.1-90.5
	c0-22.1,8-55.8,12.1-71.3c1.4-5.2,2.3-8.4,2.3-8.4s9.2-26.2,7.5-37c-0.1-0.8-0.3-1.6-0.7-2.4c-0.1-0.3-0.3-0.6-0.5-0.9
	c-4.3-5.7-16.6-47.5-21.4-65.4c-0.8-2.7-1.4-5.3-1.9-8.1c0-2.7,33.2-10.8,41.4-11.1c8.3-0.4,10.5,11.1,10.5,11.1
	c2.7,1.8,15.2,33.2,15.2,33.2l11.7-29.6c0,0-0.9-6.3-1.8-6.3c-0.9,0,13.3-8.5,13.3-8.5s14.5,10.3,22.6,8.5s26.9,14.3,26.9,14.3
	s-33.2,83.3-19.7,101.3C1164.6,376.1,1205.8,521.3,1205.8,521.3z"/>
<path class="st0" d="M1096.5,725.8c0,0-15.2,15.2-15.2,17l-12.5-5.4c0,0-5.4,19.7-6.3,22.4s-16.1,26.9-31.4,37.6
	c-15.2,10.8,0,24.2,13.4,21.5c13.4-2.7,47.5-33.2,47.5-33.2s23.3,0,31.4-17.9C1123.4,767.9,1101.8,724,1096.5,725.8z"/>
<path class="st0" d="M1141.3,751.6c0,0-23-16.7-24.5-1.2s-1.5,49.6-1.5,49.6s-7.2,22.4,15.2,19.7s24.2-9,24.2-9l-10.8-43v-18.8
	L1141.3,751.6z"/>
<path class="st5" d="M1114.4,374c0,0-12.5,0.9-58.3-8.1c-3.2-0.6-6.3-1.4-9.4-2.3c1.4-5.2,2.3-8.4,2.3-8.4s9.2-26.2,7.5-37
	c2.1,7.5,3.7,12.6,4.2,12.8c1.8,0.9,59.2,10.8,67.2,14.3C1135.9,348.9,1114.4,374,1114.4,374z"/>
<path class="st5" d="M1129.6,260.6c0,0,24.7-3,26.3,1c1.5,4,7.8,42.7,10.5,47.7c2.7,5,3.6,35.8-7.2,36.7s-25.1-9.9-22.4-18.9
	C1139.5,318.2,1129.6,260.6,1129.6,260.6z"/>
<path class="st4" d="M1117.1,342.9c0,0,37.6,4.5,43.9,0c6.3-4.5,32.3-4.5,26.9,8.1s-52,13.4-52,13.4H1109L1117.1,342.9z"/>
<path class="st1" d="M1037.6,244.9h-6.3c0,0-12.5,2.7-10.8,42.1s-10.8,65.4,35,74.4c45.7,9,58.3,8.1,58.3,8.1s21.5-25.1,13.4-28.7
	s-65.4-13.4-67.2-14.3S1037.6,244.9,1037.6,244.9z"/>
<path class="st4" d="M1155.2,264.7c0,0-15.7-58.9-28.3-58.9s-26.9,2.7-16.1,14.3c10.8,11.7,24.2,24.2,25.1,30.5
	c0.9,6.3,4.5,15.2,4.5,15.2L1155.2,264.7z"/>
<path class="st1" d="M1133.2,260.6c0,0,24.7-3,26.3,1c1.5,4,7.8,42.7,10.5,47.7c2.7,5,3.6,35.8-7.2,36.7s-25.1-9.9-22.4-18.9
	C1143.1,318.2,1133.2,260.6,1133.2,260.6z"/>
<circle class="st2" cx="1080.8" cy="149.8" r="32.3"/>
<circle class="st1" cx="255.1" cy="86.7" r="53.7"/>
<circle class="st6" cx="267.7" cy="64.8" r="53.7"/>
<circle class="st7" cx="939.4" cy="485.4" r="31.2"/>
<circle class="st6" cx="946.7" cy="472.7" r="31.2"/>
<circle class="st7" cx="386.2" cy="689" r="44.9"/>
<circle class="st6" cx="396.7" cy="670.7" r="44.9"/>
<g>
	<path class="st8" d="M842.4,544.4h-746c-22.5,0-40.8-18.3-40.8-40.8V264.8c0-22.5,18.3-40.8,40.8-40.8h746
		c22.5,0,40.8,18.3,40.8,40.8v238.8C883.2,526.1,864.9,544.4,842.4,544.4z"/>
	<path class="st9" d="M97.6,240.1c-13.7,0-24.7,11.1-24.7,24.7v238.8c0,13.7,11.1,24.7,24.7,24.7h746c13.7,0,24.7-11.1,24.7-24.7
		V264.8c0-13.7-11.1-24.7-24.7-24.7H97.6z"/>
	<path class="st10" d="M191.2,340c-15,0-27.1-12.1-27.1-27.1c0-15,12.1-27.1,27.1-27.1c15,0,27.1,12.1,27.1,27.1l0,0l0,0
		C218.3,327.8,206.2,340,191.2,340z M191.2,289.4c-13,0-23.5,10.5-23.5,23.5s10.5,23.5,23.5,23.5c13,0,23.5-10.5,23.5-23.5l0,0
		C214.7,299.9,204.2,289.4,191.2,289.4z"/>
	<path class="st10" d="M190.6,306.7L190.6,306.7l-2.9,1.5l-0.4-1.7l3.6-1.9h1.9v16.5h-2.2V306.7z"/>
	<path class="st8" d="M154.2,383.7c1.8,0.1,3.2-1.3,3.3-3.1s-1.3-3.2-3.1-3.3s-3.2,1.3-3.3,3.1c0,0.1,0,0.1,0,0.2
		C151.2,382.3,152.5,383.7,154.2,383.7z"/>
	<path class="st8" d="M154.2,403.6c1.8,0.1,3.2-1.3,3.3-3.1s-1.3-3.2-3.1-3.3s-3.2,1.3-3.3,3.1c0,0.1,0,0.1,0,0.2
		C151.2,402.2,152.5,403.5,154.2,403.6z"/>
	<path class="st8" d="M154.2,423.5c1.8,0.1,3.2-1.3,3.3-3.1s-1.3-3.2-3.1-3.3s-3.2,1.3-3.3,3.1c0,0.1,0,0.1,0,0.2
		C151.2,422.1,152.5,423.4,154.2,423.5z"/>
	<path class="st8" d="M229.5,382.4h-57.8c-1,0-1.8-0.8-1.8-1.8c0-1,0.8-1.8,1.8-1.8h57.8c1,0,1.8,0.8,1.8,1.8
		C231.3,381.6,230.5,382.4,229.5,382.4L229.5,382.4z"/>
	<path class="st8" d="M229.5,402.2h-57.8c-1,0-1.8-0.8-1.8-1.8c0-1,0.8-1.8,1.8-1.8h57.8c1,0,1.8,0.8,1.8,1.8
		C231.3,401.4,230.5,402.2,229.5,402.2L229.5,402.2z"/>
	<path class="st8" d="M229.5,422.1h-57.8c-1,0-1.8-0.8-1.8-1.8c0-1,0.8-1.8,1.8-1.8h57.8c1,0,1.8,0.8,1.8,1.8
		C231.3,421.3,230.5,422.1,229.5,422.1C229.5,422.1,229.5,422.1,229.5,422.1L229.5,422.1z"/>
	<path class="st10" d="M359.1,336.3c-15,0-27.1-12.1-27.1-27.1s12.1-27.1,27.1-27.1c15,0,27.1,12.1,27.1,27.1
		C386.2,324.1,374,336.3,359.1,336.3L359.1,336.3z M359.1,285.7c-13,0-23.5,10.5-23.5,23.5c0,13,10.5,23.5,23.5,23.5
		c13,0,23.5-10.5,23.5-23.5v0v0C382.5,296.2,372,285.7,359.1,285.7L359.1,285.7z"/>
	<path class="st10" d="M354.3,317.5v-1.4l1.7-1.7c4.2-4,6.1-6.1,6.1-8.6c0.2-1.6-1-3.1-2.6-3.2c-0.2,0-0.4,0-0.6,0
		c-1.3,0-2.5,0.5-3.5,1.4l-0.7-1.6c1.3-1.1,3-1.7,4.7-1.7c2.5-0.2,4.8,1.7,5,4.2c0,0.2,0,0.4,0,0.6c0,3-2.2,5.5-5.7,8.8l-1.3,1.2v0
		h7.4v1.8H354.3z"/>
	<path class="st9" d="M430.8,481.3H287.3c-6.1,0-11.1-5-11.1-11.1v-85.4c0-6.1,5-11.1,11.1-11.1h143.5c6.1,0,11.1,5,11.1,11.1v85.4
		C442,476.3,437,481.3,430.8,481.3z"/>
	<path class="st8" d="M407.9,396.8h-97.6c-1,0-1.8-0.8-1.8-1.8c0-1,0.8-1.8,1.8-1.8h97.6c1,0,1.8,0.8,1.8,1.8
		C409.7,396,408.9,396.8,407.9,396.8L407.9,396.8z"/>
	<path class="st8" d="M407.9,413h-97.6c-1,0-1.8-0.8-1.8-1.8c0-1,0.8-1.8,1.8-1.8h97.6c1,0,1.8,0.8,1.8,1.8
		C409.7,412.2,408.8,413,407.9,413L407.9,413z"/>
	<path class="st8" d="M407.9,429.3h-97.6c-1,0-1.8-0.8-1.8-1.8s0.8-1.8,1.8-1.8h97.6c1,0,1.8,0.8,1.8,1.8
		C409.7,428.5,408.9,429.3,407.9,429.3L407.9,429.3L407.9,429.3z"/>
	<path class="st8" d="M407.9,445.5h-97.6c-1,0-1.8-0.8-1.8-1.8s0.8-1.8,1.8-1.8h97.6c1,0,1.8,0.8,1.8,1.8
		C409.7,444.7,408.8,445.5,407.9,445.5L407.9,445.5z"/>
	<path class="st8" d="M407.9,461.8h-97.6c-1,0-1.8-0.8-1.8-1.8c0-1,0.8-1.8,1.8-1.8h97.6c1,0,1.8,0.8,1.8,1.8
		C409.7,461,408.9,461.8,407.9,461.8L407.9,461.8L407.9,461.8z"/>
	<path class="st8" d="M430.8,481.3H287.3c-6.1,0-11.1-5-11.1-11.1v-85.4c0-6.1,5-11.1,11.1-11.1h143.5c6.1,0,11.1,5,11.1,11.1v85.4
		C442,476.3,437,481.3,430.8,481.3z M287.3,376.1c-4.8,0-8.7,3.9-8.7,8.7v85.4c0,4.8,3.9,8.7,8.7,8.7h143.5c4.8,0,8.7-3.9,8.7-8.7
		v-85.4c0-4.8-3.9-8.7-8.7-8.7H287.3z"/>
	<path class="st10" d="M540.6,336.3c-15,0-27.1-12.1-27.1-27.1s12.1-27.1,27.1-27.1c15,0,27.1,12.1,27.1,27.1
		S555.6,336.3,540.6,336.3z M540.6,285.7c-13,0-23.5,10.5-23.5,23.5c0,13,10.5,23.5,23.5,23.5s23.5-10.5,23.5-23.5v0v0
		C564.1,296.2,553.6,285.7,540.6,285.7L540.6,285.7z"/>
	<path class="st10" d="M536.1,314.8c1.1,0.7,2.4,1,3.6,1c2.9,0,3.7-1.8,3.7-3.2c0-2.3-2.1-3.3-4.3-3.3H538v-1.7h1.2
		c1.6,0,3.7-0.8,3.7-2.8c0-1.3-0.8-2.5-2.9-2.5c-1.2,0-2.3,0.4-3.3,1.1l-0.6-1.6c1.3-0.8,2.8-1.3,4.3-1.3c3.2,0,4.7,1.9,4.7,3.9
		c0,1.8-1.3,3.4-3,3.9v0.1c2.1,0.3,3.7,2.1,3.7,4.2c0,2.6-2.1,4.9-6,4.9c-1.5,0-3-0.4-4.3-1.1L536.1,314.8z"/>
	<path class="st8" d="M500.6,457.4c1.8,0.1,3.2-1.3,3.3-3.1c0.1-1.8-1.3-3.2-3.1-3.3c-1.8-0.1-3.2,1.3-3.3,3.1c0,0.1,0,0.1,0,0.2
		C497.6,456.1,498.9,457.4,500.6,457.4z"/>
	<path class="st8" d="M575.9,456.1H518c-1,0-1.8-0.8-1.8-1.8c0-1,0.8-1.8,1.8-1.8c0,0,0,0,0,0h57.8c1,0,1.8,0.8,1.8,1.8
		C577.7,455.3,576.9,456.1,575.9,456.1L575.9,456.1L575.9,456.1z"/>
	<path class="st8" d="M591.4,431.8H489.9c-4.8,0-8.7-3.9-8.7-8.7v-40.8c0-4.8,3.9-8.7,8.7-8.7h101.4c4.8,0,8.7,3.9,8.7,8.7v40.8
		C600,427.9,596.2,431.8,591.4,431.8z M489.9,376.1c-3.4,0-6.2,2.8-6.2,6.2v40.8c0,3.4,2.8,6.2,6.2,6.2h101.4c3.4,0,6.2-2.8,6.2-6.2
		v-40.8c0-3.4-2.8-6.2-6.2-6.2H489.9z"/>
	
		<rect x="479" y="401.6" transform="matrix(0.9117 -0.4109 0.4109 0.9117 -117.7661 257.7715)" class="st8" width="123.4" height="2.5"/>
	
		<rect x="539.6" y="341" transform="matrix(0.417 -0.9089 0.9089 0.417 -50.5268 726.2387)" class="st8" width="2.5" height="123.1"/>
	<path class="st10" d="M674.7,404.4c-0.1-0.1-0.2-0.3-0.3-0.4v0l-13.6-13.6c-0.7-0.7-1.8-0.7-2.6,0c-0.7,0.7-0.7,1.8,0,2.6
		c0,0,0,0,0,0l10.5,10.5h-46.2c-1,0-1.8,0.8-1.8,1.8c0,1,0.8,1.8,1.8,1.8h46.2l-9.6,9.6c-0.7,0.7-0.7,1.8,0,2.6
		c0.7,0.7,1.8,0.7,2.6,0c0,0,0,0,0,0l12.6-12.6l0,0C675,406,675.1,405.1,674.7,404.4z"/>
	<path class="st9" d="M786.4,345.8v127.1c0,5.5-4.5,10-10,10H727c-5.5,0-10-4.5-10-10V345.8c0-5.5,4.5-10,10-10h6
		c-1,2.4,0.2,5.2,2.6,6.2c0.6,0.2,1.2,0.4,1.8,0.4h28.2c2.6,0,4.8-2.1,4.8-4.8c0-0.6-0.1-1.2-0.4-1.8h6.4
		C781.9,335.8,786.4,340.3,786.4,345.8z"/>
	<path class="st1" d="M139.2,492.6c-1-1.3-1.4-3-1-4.7c4.7-19.6,4.7-40.1,0-59.8c-0.4-1.6,0-3.3,1-4.7c1-1.3,2.6-2,4.2-2h50.1
		c2.6,0,4.9,1.9,5.3,4.5c3.3,21.2,3.3,42.9,0,64.1c-0.4,2.6-2.7,4.5-5.3,4.5h-50.1C141.8,494.6,140.2,493.9,139.2,492.6z"/>
	<path class="st9" d="M183.9,448.5h-26.4c-2,0-3.7-1.7-3.7-3.7v-1.6c0-2,1.7-3.7,3.7-3.7h26.4c2,0,3.7,1.7,3.7,3.7v1.6
		C187.6,446.8,185.9,448.5,183.9,448.5z"/>
	<path class="st9" d="M183.9,464h-26.4c-2,0-3.7-1.7-3.7-3.7v-1.6c0-2,1.7-3.7,3.7-3.7h26.4c2,0,3.7,1.7,3.7,3.7v1.6
		C187.6,462.3,185.9,464,183.9,464z"/>
	<path class="st1" d="M602.9,538.3c-3.2-20.9-3.2-42.2,0-63.1c0.4-2.6,2.6-4.5,5.2-4.5h49.3c1.6,0,3.2,0.7,4.2,2c1,1.3,1.4,3,1,4.6
		c-4.6,19.3-4.6,39.5,0,58.8c0.4,1.6,0,3.3-1,4.6c-1,1.3-2.5,2-4.2,2h-49.3C605.5,542.7,603.3,540.9,602.9,538.3z"/>
	<path class="st9" d="M643.2,502.8h-25.9c-2,0-3.7-1.7-3.7-3.7v-1.5c0-2,1.7-3.7,3.7-3.7h25.9c2,0,3.7,1.7,3.7,3.7v1.5
		C646.9,501.2,645.2,502.8,643.2,502.8z"/>
	<path class="st0" d="M827.8,357l-1-0.3l9.3-27.9c3-8.9-1.8-18.5-10.7-21.5c0,0,0,0,0,0l0,0l-59-19.8c-8.9-3-18.5,1.8-21.5,10.7v0
		l-51.2,152.8c-3,8.9,1.8,18.5,10.7,21.5h0l59,19.8c8.9,3,18.5-1.8,21.5-10.7v0l35.2-105.1l1,0.3L827.8,357z"/>
	<path class="st9" d="M824.6,311.7l-7.7-2.6c0.2,3.3-2.3,6.2-5.6,6.4c-0.8,0-1.6-0.1-2.3-0.3l-33.8-11.3c-3.2-1.1-4.9-4.5-3.8-7.6
		c0.2-0.7,0.6-1.4,1.1-2l-7.2-2.4c-6.6-2.2-13.8,1.4-16.1,8l-51.1,152.6c-2.2,6.6,1.4,13.8,8,16.1l0,0l59.3,19.9
		c6.6,2.2,13.8-1.4,16.1-8l0,0l51.1-152.6C834.8,321.1,831.2,313.9,824.6,311.7L824.6,311.7z"/>
	<path class="st11" d="M809.8,362.9l-63.3-21.2c-0.6-0.2-1-0.9-0.8-1.6l5.3-15.7c0.2-0.6,0.9-1,1.6-0.8l63.3,21.2
		c0.6,0.2,1,0.9,0.8,1.6l-5.3,15.7C811.1,362.7,810.4,363.1,809.8,362.9z M752.4,324.1c-0.4-0.1-0.8,0.1-0.9,0.5l-5.3,15.7
		c-0.1,0.4,0.1,0.8,0.5,0.9l63.3,21.2c0.4,0.1,0.8-0.1,0.9-0.5l5.3-15.7c0.1-0.4-0.1-0.8-0.5-0.9L752.4,324.1z"/>
	<path class="st11" d="M788.9,425l-63.3-21.2c-0.6-0.2-1-0.9-0.8-1.6l9.7-29.1c0.2-0.6,0.9-1,1.6-0.8l63.3,21.2
		c0.6,0.2,1,0.9,0.8,1.6l-9.7,29.1C790.3,424.9,789.6,425.2,788.9,425z M736,372.9c-0.4-0.1-0.8,0.1-0.9,0.5l-9.7,29.1
		c-0.1,0.4,0.1,0.8,0.5,0.9l63.3,21.2c0.4,0.1,0.8-0.1,0.9-0.5l9.7-29.1c0.1-0.4-0.1-0.8-0.5-0.9L736,372.9z"/>
	<path class="st8" d="M801.1,387.1l-28.1-9.4c-0.6-0.2-1-0.9-0.8-1.6l5.3-15.7c0.2-0.6,0.9-1,1.6-0.8l28.1,9.4
		c0.6,0.2,1,0.9,0.8,1.6l-5.3,15.7C802.5,387,801.8,387.3,801.1,387.1z M778.9,360.1c-0.4-0.1-0.8,0.1-0.9,0.5l-5.3,15.7
		c-0.1,0.4,0.1,0.8,0.5,0.9l28.1,9.4c0.4,0.1,0.8-0.1,0.9-0.5l5.3-15.7c0.1-0.4-0.1-0.8-0.5-0.9L778.9,360.1z"/>
	<path class="st8" d="M741.1,451.2l-28.1-9.4c-0.6-0.2-1-0.9-0.8-1.6l9.8-29.3c0.2-0.6,0.9-1,1.6-0.8l28.1,9.4
		c0.6,0.2,1,0.9,0.8,1.6l-9.8,29.3C742.4,451.1,741.7,451.4,741.1,451.2z M723.4,410.6c-0.4-0.1-0.8,0.1-0.9,0.5l-9.8,29.3
		c-0.1,0.4,0.1,0.8,0.5,0.9l28.1,9.4c0.4,0.1,0.8-0.1,0.9-0.5L752,421c0.1-0.4-0.1-0.8-0.5-0.9L723.4,410.6z"/>
	<path class="st8" d="M775.8,462.8l-28.1-9.4c-0.6-0.2-1-0.9-0.8-1.6l9.8-29.3c0.2-0.6,0.9-1,1.6-0.8l28.1,9.4
		c0.6,0.2,1,0.9,0.8,1.6l-9.8,29.3C777.1,462.7,776.4,463,775.8,462.8z M758.1,422.2c-0.4-0.1-0.8,0.1-0.9,0.5l-9.8,29.3
		c-0.1,0.4,0.1,0.8,0.5,0.9l28.1,9.4c0.4,0.1,0.8-0.1,0.9-0.5l9.8-29.3c0.1-0.4-0.1-0.8-0.5-0.9L758.1,422.2z"/>
	<circle class="st1" cx="742.1" cy="385.8" r="5"/>
	<path class="st8" d="M754.2,386.3c-0.4-0.1-0.9,0.1-1.1,0.5s0.1,0.9,0.5,1.1c0,0,0,0,0,0l37.5,12.6c0.4,0.1,0.9-0.1,1.1-0.5
		c0.1-0.4-0.1-0.9-0.5-1.1c0,0,0,0,0,0L754.2,386.3z"/>
	<path class="st8" d="M752.6,391.1c-0.4-0.1-0.9,0.1-1.1,0.5s0.1,0.9,0.5,1.1c0,0,0,0,0,0l16.1,5.4c0.4,0.1,0.9-0.1,1.1-0.5
		c0.1-0.4-0.1-0.9-0.5-1.1L752.6,391.1z"/>
	<path class="st8" d="M735.3,393.8c-0.6-0.2-1.2,0-1.4,0.4c-0.1,0.4,0.2,1,0.8,1.2l51.8,17.3c0.6,0.2,1.2,0,1.4-0.4
		c0.1-0.4-0.2-1-0.8-1.2L735.3,393.8z"/>
	<path class="st8" d="M733.7,398.6c-0.6-0.2-1.2,0-1.4,0.4c-0.1,0.4,0.2,1,0.8,1.2l51.8,17.3c0.6,0.2,1.2,0,1.4-0.4
		c0.1-0.4-0.2-1-0.8-1.2L733.7,398.6z"/>
	<circle class="st1" cx="759.5" cy="335.3" r="5"/>
	<path class="st8" d="M771.6,335.9c-0.4-0.1-0.9,0.1-1.1,0.5c-0.1,0.4,0.1,0.9,0.5,1.1c0,0,0,0,0,0l37.5,12.6
		c0.4,0.1,0.9-0.1,1.1-0.5c0.1-0.4-0.1-0.9-0.5-1.1L771.6,335.9z"/>
	<path class="st8" d="M770,340.6c-0.4-0.1-0.9,0.1-1.1,0.5c-0.1,0.4,0.1,0.9,0.5,1.1c0,0,0,0,0,0l16.1,5.4c0.4,0.1,0.9-0.1,1.1-0.5
		c0.1-0.4-0.1-0.9-0.5-1.1L770,340.6z"/>
	<path class="st8" d="M766.4,375.5l-26.4-8.8l9.8-8.7c0.6-0.5,1.4-0.4,1.9,0.1c0.2,0.2,0.3,0.4,0.3,0.6l1.1,5.5l7.1-6.3
		c0.7-0.6,1.8-0.5,2.4,0.1c0.2,0.2,0.3,0.5,0.4,0.8L766.4,375.5z M741,366.4l24.8,8.3l-3.2-15.8c-0.1-0.6-0.8-1.1-1.4-0.9
		c-0.2,0-0.4,0.1-0.5,0.3l-7.8,6.9l-1.3-6.3c-0.1-0.5-0.5-0.8-1-0.7c-0.1,0-0.3,0.1-0.4,0.2L741,366.4z"/>
	<path class="st8" d="M800.2,386.8l-26.4-8.8l9.8-8.7c0.6-0.5,1.4-0.4,1.9,0.1c0.2,0.2,0.3,0.4,0.3,0.6l1.1,5.5l7.1-6.3
		c0.7-0.6,1.8-0.5,2.4,0.1c0.2,0.2,0.3,0.5,0.4,0.8L800.2,386.8z M774.7,377.7l24.8,8.3l-3.2-15.8c-0.1-0.6-0.8-1.1-1.4-0.9
		c-0.2,0-0.4,0.1-0.5,0.3l-7.8,6.9l-1.3-6.3c-0.1-0.5-0.5-0.8-1-0.7c-0.1,0-0.3,0.1-0.4,0.2L774.7,377.7z"/>
	<path class="st8" d="M766.4,375.5l-28.1-9.4c-0.6-0.2-1-0.9-0.8-1.6l5.3-15.7c0.2-0.6,0.9-1,1.6-0.8l28.1,9.4
		c0.6,0.2,1,0.9,0.8,1.6l-5.3,15.7C767.8,375.3,767.1,375.7,766.4,375.5z M744.2,348.5c-0.4-0.1-0.8,0.1-0.9,0.5l-5.3,15.7
		c-0.1,0.4,0.1,0.8,0.5,0.9l28.1,9.4c0.4,0.1,0.8-0.1,0.9-0.5l5.3-15.7c0.1-0.4-0.1-0.8-0.5-0.9L744.2,348.5z"/>
	<path class="st8" d="M727.5,418.2c-0.4-0.1-0.9,0.1-1.1,0.5c-0.1,0.4,0.1,0.9,0.5,1.1c0,0,0,0,0,0l16.1,5.4
		c0.4,0.1,0.9-0.1,1.1-0.5s-0.1-0.9-0.5-1.1L727.5,418.2z"/>
	<path class="st8" d="M725.9,422.9c-0.4-0.1-0.9,0.1-1.1,0.5c-0.1,0.4,0.1,0.9,0.5,1.1l16.1,5.4c0.4,0.1,0.9-0.1,1.1-0.5
		c0.1-0.4-0.1-0.9-0.5-1.1L725.9,422.9z"/>
	<path class="st8" d="M729,440.4c-2.8-0.9-4.3-3.9-3.3-6.7s3.9-4.3,6.7-3.3c2.8,0.9,4.3,3.9,3.3,6.7l0,0
		C734.8,439.9,731.8,441.4,729,440.4z M732.2,430.9c-2.5-0.8-5.2,0.5-6.1,3s0.5,5.2,3,6.1c2.5,0.8,5.2-0.5,6.1-3l0,0
		C736.1,434.4,734.7,431.7,732.2,430.9L732.2,430.9z"/>
	<path class="st8" d="M771.8,454.8c0.4,0.1,0.9-0.1,1.1-0.5s-0.1-0.9-0.5-1.1c0,0,0,0,0,0l-16.1-5.4c-0.4-0.1-0.9,0.1-1.1,0.5
		c-0.1,0.4,0.1,0.9,0.5,1.1c0,0,0,0,0,0L771.8,454.8z"/>
	<path class="st8" d="M773.4,450.1c0.4,0.1,0.9-0.1,1.1-0.5c0.1-0.4-0.1-0.9-0.5-1.1l-16.1-5.4c-0.4-0.1-0.9,0.1-1.1,0.5
		s0.1,0.9,0.5,1.1c0,0,0,0,0,0L773.4,450.1z"/>
	<path class="st8" d="M770.3,432.5c2.8,0.9,4.3,3.9,3.3,6.7s-3.9,4.3-6.7,3.3c-2.8-0.9-4.3-3.9-3.3-6.7l0,0
		C764.5,433.1,767.5,431.6,770.3,432.5z M767.1,442.1c2.5,0.8,5.2-0.5,6.1-3c0.8-2.5-0.5-5.2-3-6.1c-2.5-0.8-5.2,0.5-6.1,3l0,0
		C763.2,438.5,764.6,441.2,767.1,442.1z"/>
</g>
</svg>
