<?xml version="1.0" encoding="utf-8"?>
<!-- Generator: Adobe Illustrator 25.2.1, SVG Export Plug-In . SVG Version: 6.00 Build 0)  -->
<svg version="1.1" id="_x39_bd8837e-6a32-469b-9c65-eb2a44b6ad9f"
	 xmlns="http://www.w3.org/2000/svg" xmlns:xlink="http://www.w3.org/1999/xlink" x="0px" y="0px" viewBox="0 0 1111 836.3"
	 style="enable-background:new 0 0 1111 836.3;" xml:space="preserve">
<style type="text/css">
	.st0{opacity:0.1;fill:#B17166;enable-background:new    ;}
	.st1{fill:url(#SVGID_1_);}
	.st2{fill:#535461;}
	.st3{fill:#D6D6E3;}
	.st4{fill:#A8A8A8;}
	.st5{fill:#B17166;}
	.st6{opacity:0.1;}
	.st7{fill:#FFFFFF;}
	.st8{fill:#575988;}
	.st9{fill:#FA595F;}
	.st10{fill:#FFD037;}
</style>
<g>
	<path class="st0" d="M931.9,193.3c7.2,69.4,63.2,127.6,116.2,166.6c17.7,13.1,36.8,26.5,48,48c13.6,26.2,11.2,57.1,2.5,80.6
		c-15.9,42.8-51.6,70-92.8,70.8c-35.6,0.7-73.7-16.9-109.1-14.9c-59.2,3.3-98.1,60.2-123.3,120.4c-17.8,42.6-35,92.4-74.6,103
		c-27.8,7.5-60.9-7.2-88.8-29.6c-13.5-10.8-26.8-23.7-41.5-28.4c-8.8-2.8-17.4-2.5-25.7-1.2c-75.6,11.1-125.6,91-202.5,96.6
		c-52,3.8-108.9-27.9-155.6-73S100,629.5,63.9,571.6c-25.6-41.1-51.8-86.2-55.7-132.9C4.1,389.2,27,347.6,59.4,327
		s73.1-23,113.4-18.6c50.3,5.5,104.1,20.9,147.6,1.2c29.6-13.4,51-41.7,74-66.4c38.5-41.2,83.4-73.4,128.4-104.8
		c43.1-30,87-59.6,136.4-76c35-11.6,72.2-7.7,108.2-14.4c23.5-4.4,43-18,67.6-18.6c30.4-0.8,67.8,12.4,86.9,51.4
		C940,117.9,928,156.5,931.9,193.3z"/>
	
		<linearGradient id="SVGID_1_" gradientUnits="userSpaceOnUse" x1="547.3152" y1="29.4711" x2="547.3152" y2="769.4411" gradientTransform="matrix(1 0 0 -1 -44.49 805.4612)">
		<stop  offset="0" style="stop-color:#808080;stop-opacity:0.25"/>
		<stop  offset="0.54" style="stop-color:#808080;stop-opacity:0.12"/>
		<stop  offset="1" style="stop-color:#808080;stop-opacity:0.1"/>
	</linearGradient>
	<path class="st1" d="M719,43.1l-67.5-4.1l-39.1-2.8V36h-0.5h-0.5v0.1l-210,17H384l-2,73.4l33.8,12.1L436.2,244L343,430.9
		l-56.3,43.2v41.2l33.8,33.2l2,151.7l10.2,2v-1.6l5.1,1v0.6L538,770.2l8.4,5.8l17.6-11.1l141.7-82.8L719,43.1z M503.9,514.4
		L503.9,514.4l54.8-47l0,0L503.9,514.4z M313.8,533.9l14.8,14.6v0.9L313.8,533.9z"/>
	<polygon class="st2" points="340.8,551.5 540.4,602.5 510.7,568.5 493.9,547.5 319,512.5 311.1,519.5 	"/>
	<polygon class="st3" points="311.1,519.5 507.8,565.5 508.7,517.5 452.4,495.5 339.8,476.5 307.2,476.5 	"/>
	<polygon class="st3" points="453.4,247.5 654,260.5 654,222.5 640.2,137.5 633.3,131.5 432.7,137.5 	"/>
	<polygon class="st3" points="406,56.5 396.1,56.5 394.1,129.5 426.7,141.5 446.5,246.5 356.6,432.5 302.2,475.5 302.2,516.5 
		334.8,549.5 336.8,700.5 346.7,702.5 344.7,552.5 312.1,517.5 311.1,475.5 363.5,433.5 455.4,247.5 435.6,141.5 403,127.5 
		406,56.5 	"/>
	<polygon class="st2" points="398.1,56.5 388.2,56.5 386.2,129.5 418.8,141.5 438.6,246.5 348.7,432.5 294.3,475.5 294.3,516.5 
		326.9,549.5 328.9,700.5 338.8,702.5 336.8,552.5 304.2,517.5 303.2,475.5 357.6,433.5 447.5,247.5 427.7,141.5 395.1,127.5 
		398.1,56.5 	"/>
	<polygon class="st4" points="397.6,122 402.5,129 430.2,142 649.6,136 628.3,129.5 605.6,119.5 608.6,111.5 	"/>
	<polygon class="st5" points="360.5,436.5 561.1,469.5 601.6,382.5 657,257.5 453.4,247.5 	"/>
	<g class="st6">
		<polygon class="st7" points="464.3,283.5 599.7,294.5 529.5,434.5 398.1,414.5 		"/>
	</g>
	<g class="st6">
		<polygon class="st7" points="473.6,293.7 479.6,294.2 476.5,300.3 470.7,299.5 		"/>
	</g>
	<g class="st6">
		<polygon class="st7" points="474.6,351.7 480.6,352.2 477.5,358.3 471.7,357.5 		"/>
	</g>
	<g class="st6">
		<polygon class="st7" points="507.2,300.7 513.2,301.2 510.1,307.3 504.3,306.5 		"/>
	</g>
	<g class="st6">
		<polygon class="st7" points="569.5,303.7 575.5,304.2 572.4,310.3 566.6,309.5 		"/>
	</g>
	<g class="st6">
		<polygon class="st7" points="485.5,311.7 491.5,312.2 488.4,318.3 482.6,317.5 		"/>
	</g>
	<g class="st6">
		<polygon class="st7" points="507.2,372.7 513.2,373.2 510.1,379.3 504.3,378.5 		"/>
	</g>
	<g class="st6">
		<polygon class="st7" points="453.9,337.7 459.8,338.2 456.7,344.3 450.9,343.5 		"/>
	</g>
	<g class="st6">
		<polygon class="st7" points="544.8,300.7 550.7,301.2 547.7,307.3 541.9,306.5 		"/>
	</g>
	<g class="st6">
		<polygon class="st7" points="497.3,334.7 503.3,335.2 500.2,341.3 494.4,340.5 		"/>
	</g>
	<g class="st6">
		<polygon class="st7" points="490.4,296.7 496.4,297.2 493.3,303.3 487.5,302.5 		"/>
	</g>
	<g class="st6">
		<polygon class="st7" points="521.1,331.7 527,332.2 523.9,338.3 518.1,337.5 		"/>
	</g>
	<g class="st6">
		<polygon class="st7" points="528,300.7 533.9,301.2 530.9,307.3 525.1,306.5 		"/>
	</g>
	<g class="st6">
		<polygon class="st7" points="465.7,314.7 471.7,315.2 468.6,321.3 462.8,320.5 		"/>
	</g>
	<polygon class="st3" points="307.2,476.5 502.8,516.5 556.7,468.8 361,435 	"/>
	<polygon class="st2" points="343.7,546.5 343.7,702.5 537.4,770.5 540.4,608.5 532.5,593.4 496.9,584.5 	"/>
	<ellipse class="st8" cx="368.9" cy="449.5" rx="8.4" ry="5"/>
	<ellipse class="st9" cx="375.8" cy="460.5" rx="8.4" ry="5"/>
	<ellipse class="st10" cx="352.1" cy="457.5" rx="8.4" ry="5"/>
	<ellipse class="st8" cx="458.8" cy="467.5" rx="8.4" ry="5"/>
	<ellipse class="st10" cx="442" cy="476.5" rx="8.4" ry="5"/>
	<ellipse class="st4" cx="410.4" cy="461.5" rx="12.4" ry="6"/>
	<ellipse class="st9" cx="467.7" cy="478.5" rx="8.4" ry="5"/>
	<path class="st4" d="M413.9,460.5H408l-5.1-19.9c-0.8-3,1-6.1,4-6.9c0.5-0.1,0.9-0.2,1.4-0.2l0,0c3.1,0,5.6,2.5,5.6,5.7
		L413.9,460.5z"/>
	<ellipse class="st4" cx="499.4" cy="477.5" rx="12.4" ry="6"/>
	<path class="st4" d="M502.8,476.5h-5.9l-5.1-19.9c-0.8-3,1-6.1,4-6.9c0.5-0.1,0.9-0.2,1.4-0.2l0,0c3.1,0,5.6,2.5,5.6,5.7
		L502.8,476.5z"/>
	<polygon class="st2" points="405,56.5 608.6,39.5 603.6,114.5 400,124.5 	"/>
	<polygon class="st3" points="607.6,39.5 701.4,46.5 688.6,682.5 544.8,776 534.9,769 534.4,602.5 502.8,566.5 502.8,516.5 
		558.2,467.5 652,256.5 638.7,136 645.6,136 601.6,120.5 	"/>
	<polygon class="st2" points="616.5,40.5 711.3,46.5 698.5,682.5 544.3,775.5 544.3,602.5 512.7,566.5 512.7,516.5 568,467.5 
		661.9,256.5 645.1,135.5 611.5,120.5 	"/>
	<g class="st6">
	</g>
</g>
</svg>
